<?xml version="1.0" encoding="UTF-8" standalone="no"?>
<!-- Created with Inkscape (http://www.inkscape.org/) -->

<svg
   width="77.428337mm"
   height="73.868538mm"
   viewBox="0 0 77.428337 73.868538"
   version="1.1"
   id="svg1"
   xml:space="preserve"
   xmlns="http://www.w3.org/2000/svg"
   xmlns:svg="http://www.w3.org/2000/svg"><defs
     id="defs1" /><g
     id="layer1"
     transform="translate(-66.358926,-110.07814)"><rect
       style="fill:none;fill-opacity:1;stroke:#000000;stroke-width:7.169;stroke-linecap:round;stroke-linejoin:round;stroke-dasharray:none;stroke-opacity:1;paint-order:fill markers stroke"
       id="rect2"
       width="58.137707"
       height="57.474094"
       x="82.065056"
       y="113.66265" /><path
       id="rect3-7"
       style="fill:none;stroke:#000000;stroke-width:7.16943;stroke-linecap:round;stroke-linejoin:round;stroke-dasharray:none;stroke-opacity:1;paint-order:markers stroke fill"
       d="m 81.876691,121.61267 -11.933122,2.88716 13.51442,55.86222 53.391061,-12.91652 H 81.876692 Z" /><circle
       style="fill:#000000;fill-opacity:1;stroke:none;stroke-width:11.9708;stroke-linecap:round;stroke-linejoin:round;stroke-dasharray:none;stroke-opacity:1;paint-order:markers stroke fill"
       id="path2"
       cx="102.53699"
       cy="131.02321"
       r="6.4043927" /><path
       style="fill:#000000;fill-opacity:1;stroke:#000000;stroke-width:0.2;stroke-linecap:round;stroke-linejoin:round;stroke-dasharray:none;stroke-opacity:1;paint-order:markers stroke fill"
       d="m 89.184742,162.73421 c 0,0 2.244,-5.49225 4.583234,-9.1759 1.366905,-2.15249 2.957929,-4.13938 4.706195,-3.39355 4.055699,1.73018 5.851839,3.96005 9.299749,3.17375 0,0 1.41948,0.13523 2.56083,-1.77448 2.45651,-4.11026 7.31057,-9.19022 11.53884,-9.06754 1.53325,0.0445 3.69344,0.76807 4.81331,2.60303 0,0 2.6612,3.66707 4.50468,7.73416 1.77153,3.90835 2.73015,8.18249 2.63768,10.1012 z"
       id="path3" /></g></svg>
