<?xml version="1.0" encoding="UTF-8" standalone="no"?>
<!-- Created with Inkscape (http://www.inkscape.org/) -->

<svg
   width="131.65495mm"
   height="131.65495mm"
   viewBox="0 0 131.65495 131.65495"
   version="1.1"
   id="svg1"
   xml:space="preserve"
   xmlns="http://www.w3.org/2000/svg"
   xmlns:svg="http://www.w3.org/2000/svg"><defs
     id="defs1" /><g
     id="layer1"
     transform="translate(-38.942174,-66.444204)"><circle
       style="opacity:1;fill:none;fill-opacity:1;stroke:#000000;stroke-width:9;stroke-linecap:round;stroke-linejoin:round;stroke-dasharray:none;stroke-opacity:1;paint-order:fill markers stroke"
       id="path3"
       cx="104.76965"
       cy="132.27168"
       r="61.32748" /><path
       id="path4"
       style="opacity:1;fill:#000000;fill-opacity:1;stroke:#000000;stroke-width:1;stroke-linecap:round;stroke-linejoin:round;stroke-dasharray:none;stroke-opacity:1;paint-order:fill markers stroke"
       d="m 134.84758,98.560909 c -0.52487,-0.01122 -1.01574,0.0908 -1.36529,0.260966 l -41.010415,20.505205 -20.161043,40.9696 c -2.645831,5.55624 2.854089,4.1801 2.854089,4.1801 l 41.539579,-20.6375 c 0,0 19.87728,-36.34956 20.87883,-40.91636 0.71866,-3.276899 -1.16113,-4.328344 -2.73575,-4.362011 z m -30.26482,27.189041 a 6.287818,6.287818 0 0 1 6.28748,6.28799 6.287818,6.287818 0 0 1 -6.28748,6.28747 6.287818,6.287818 0 0 1 -6.287985,-6.28747 6.287818,6.287818 0 0 1 6.287985,-6.28799 z" /></g></svg>
