<?xml version="1.0" encoding="UTF-8" standalone="no"?>
<!-- Created with Inkscape (http://www.inkscape.org/) -->

<svg
   width="58.957367mm"
   height="58.957367mm"
   viewBox="0 0 58.957367 58.957367"
   version="1.1"
   id="svg1"
   xml:space="preserve"
   xmlns="http://www.w3.org/2000/svg"
   xmlns:svg="http://www.w3.org/2000/svg"><defs
     id="defs1" /><g
     id="layer1"
     transform="translate(-4.809967,-4.2122726)"><circle
       style="opacity:1;fill:#bdf271;fill-opacity:1;stroke:none;stroke-width:8.425;stroke-dasharray:none;stroke-opacity:1"
       id="circle28"
       cx="34.288651"
       cy="33.690956"
       r="29.478683" /><circle
       style="opacity:1;fill:#000000;fill-opacity:0.751055;stroke:none;stroke-width:7.37633;stroke-opacity:1"
       id="circle27"
       cx="34.288651"
       cy="33.690956"
       r="25.8095" /><circle
       style="opacity:1;fill:#000000;fill-opacity:1;stroke:none;stroke-width:6.06075;stroke-opacity:1"
       id="path27"
       cx="34.288651"
       cy="33.690956"
       r="21.206343" /><ellipse
       style="fill:none;stroke:#bdf271;stroke-width:1.331;stroke-dasharray:none;stroke-opacity:1"
       id="path1"
       cx="22.476059"
       cy="45.293808"
       rx="2.3895121"
       ry="2.276216" /><path
       style="fill:none;stroke:#bdf271;stroke-width:1.579;stroke-dasharray:none;stroke-opacity:1"
       d="m 24.954214,45.329664 20.055409,-1.6e-5 c 1.599475,-1.6e-5 2.94782,-1.453002 2.94782,-3.245351 0,-1.610089 -0.97981,-2.657202 -2.040664,-3.059513 -0.324646,-0.123116 -0.656881,-0.185847 -0.970948,-0.185847 H 23.284973 L 23.25,38.839393 c -1.100367,0 -2.117148,-0.609471 -2.667331,-1.598831 -0.550183,-0.98936 -0.550183,-2.208302 0,-3.197662 0.550183,-0.98936 1.566964,-1.598831 2.644033,-1.598328 l 7.937112,5.03e-4"
       id="path2" /><path
       id="path14"
       style="fill:none;stroke:#bdf271;stroke-width:1.35;stroke-linejoin:round;stroke-dasharray:none;stroke-opacity:1;paint-order:markers stroke fill"
       d="m 38.770444,24.14946 c 0,1.141257 -0.55903,2.925474 -1.58206,4.349942 -1.24854,1.738471 -3.00631,3.026645 -3.00631,3.026645 0,0 -1.78501,-1.137856 -3.11183,-3.099488 -0.86608,-1.280438 -1.47654,-3.276275 -1.47654,-4.277099 0,-2.534087 2.05428,-4.588372 4.58837,-4.588372 2.53409,0 4.58837,2.054285 4.58837,4.588372 z" /><circle
       style="fill:none;fill-opacity:1;stroke:#bdf271;stroke-width:1.366;stroke-linecap:butt;stroke-linejoin:round;stroke-dasharray:none;stroke-opacity:1;paint-order:markers stroke fill"
       id="path15"
       cx="34.182541"
       cy="23.771904"
       r="1.7776692" /></g></svg>
