<?xml version="1.0" encoding="UTF-8" standalone="no"?>
<!-- Created with Inkscape (http://www.inkscape.org/) -->

<svg
   width="74.705383mm"
   height="80.455528mm"
   viewBox="0 0 74.705383 80.455529"
   version="1.1"
   id="svg1"
   xml:space="preserve"
   xmlns="http://www.w3.org/2000/svg"
   xmlns:svg="http://www.w3.org/2000/svg"><defs
     id="defs1" /><g
     id="layer1"
     transform="translate(-70.866218,-80.701824)"><path
       id="path1"
       style="opacity:1;fill:#000000;fill-opacity:1;stroke:#000000;stroke-width:0.499533;stroke-linecap:round;stroke-linejoin:round;stroke-opacity:1;paint-order:markers stroke fill"
       d="m 108.3076,80.952165 c -2.9002,0.03212 -5.27968,1.64419 -6.51071,3.889168 -1.75182,3.194702 -1.0356,7.523055 -1.0356,7.523055 -19.718215,7.925022 -18.208706,26.039242 -18.208706,26.039242 0,17.07654 -9.785966,29.49794 -9.785966,29.49794 -3.802604,4.28626 0.149861,5.47046 0.149861,5.47046 h 70.782241 c 0,0 3.85801,-0.46144 -0.31677,-5.93348 -11.62809,-10.30725 -9.69399,-31.488 -9.69399,-31.488 0.18869,-17.265232 -17.92603,-23.869349 -17.92603,-23.869349 -0.28777,-2.763577 -0.33269,-4.753947 -0.94723,-6.591846 -1.23863,-3.704355 -4.1488,-4.56331 -6.5071,-4.53719 z m -0.063,5.169193 c 0.97191,0 2.21433,0.216873 2.21433,1.822111 l -0.0165,3.168799 -4.53615,-0.01654 v -3.152263 c 0,-1.54669 1.35582,-1.822111 2.33836,-1.822111 z" /><path
       style="opacity:1;fill:#000000;fill-opacity:1;stroke:#000000;stroke-width:0.499533;stroke-linecap:round;stroke-linejoin:round;stroke-opacity:1;paint-order:markers stroke fill"
       d="m 119.41524,153.50527 c -11.94153,16.67812 -22.616638,-0.0357 -22.616638,-0.0357 z"
       id="path4" /></g></svg>
