<?xml version="1.0" encoding="UTF-8" standalone="no"?>
<!-- Created with Inkscape (http://www.inkscape.org/) -->

<svg
   width="29.36729mm"
   height="29.349451mm"
   viewBox="0 0 29.367291 29.349451"
   version="1.1"
   id="svg1"
   xmlns="http://www.w3.org/2000/svg"
   xmlns:svg="http://www.w3.org/2000/svg">
  <defs
     id="defs1" />
  <g
     id="layer1"
     transform="translate(-96.09961,-86.974849)">
    <ellipse
       style="fill:none;stroke:#000000;stroke-width:1.331;stroke-dasharray:none;stroke-opacity:1"
       id="path1"
       cx="99.196022"
       cy="113.38258"
       rx="2.3895121"
       ry="2.276216" />
    <path
       style="fill:none;stroke:#000000;stroke-width:1.579;stroke-dasharray:none;stroke-opacity:1"
       d="m 101.67417,113.41842 h 20.1192"
       id="path2" />
    <path
       style="fill:none;stroke:#000000;stroke-width:1.579;stroke-linejoin:round;stroke-dasharray:none;stroke-opacity:1"
       id="path6"
       d="m 121.66579,106.92772 a 3.0116112,3.2453351 0 0 1 3.01161,3.24534 3.0116112,3.2453351 0 0 1 -3.01161,3.24533" />
    <path
       style="fill:none;stroke:#000000;stroke-width:1.579;stroke-linejoin:round;stroke-dasharray:none;stroke-opacity:1"
       id="path8"
       d="m 99.969962,106.92815 a 3.0799687,3.1976619 0 0 1 -2.66733,-1.59883 3.0799687,3.1976619 0 0 1 0,-3.19766 3.0799687,3.1976619 0 0 1 2.66733,-1.59883" />
    <path
       style="fill:none;stroke:#000000;stroke-width:1.579;stroke-dasharray:none;stroke-opacity:1"
       d="M 121.78452,106.92791 H 99.865522 Z"
       id="path9" />
    <path
       style="fill:none;stroke:#000000;stroke-width:1.579;stroke-linecap:round;stroke-dasharray:none;stroke-opacity:1"
       d="m 99.923362,100.53383 h 7.960408"
       id="path9-0" />
    <path
       id="path14"
       style="fill:none;stroke:#000000;stroke-width:1.35;stroke-linejoin:round;stroke-dasharray:none;stroke-opacity:1;paint-order:markers stroke fill"
       d="m 115.4904,92.238219 c 0,1.14126 -0.55903,2.92547 -1.58206,4.34994 -1.24854,1.73847 -3.00631,3.02665 -3.00631,3.02665 0,0 -1.78501,-1.13786 -3.11183,-3.09949 -0.86608,-1.28044 -1.47654,-3.27628 -1.47654,-4.2771 0,-2.53409 2.05428,-4.58837 4.58837,-4.58837 2.53409,0 4.58837,2.05428 4.58837,4.58837 z" />
    <circle
       style="fill:none;fill-opacity:1;stroke:#000000;stroke-width:1.366;stroke-linecap:butt;stroke-linejoin:round;stroke-dasharray:none;stroke-opacity:1;paint-order:markers stroke fill"
       id="path15"
       cx="110.9025"
       cy="91.860664"
       r="1.7776692" />
  </g>
</svg>
