<?xml version="1.0" encoding="UTF-8" standalone="no"?>
<!-- Created with Inkscape (http://www.inkscape.org/) -->

<svg
   width="53.311481mm"
   height="53.311478mm"
   viewBox="0 0 53.311481 53.311478"
   version="1.1"
   id="svg1"
   xml:space="preserve"
   xmlns="http://www.w3.org/2000/svg"
   xmlns:svg="http://www.w3.org/2000/svg"><defs
     id="defs1" /><g
     id="layer1"
     transform="translate(-87.909067,-120.83567)"><g
       id="layer1-7"
       transform="translate(9.523151,29.395267)"><path
         id="rect7"
         style="opacity:1;fill:#000000;fill-opacity:1;stroke:none;stroke-width:0.380927;stroke-linecap:round;stroke-linejoin:round;paint-order:markers stroke fill"
         d="m 104.98584,91.440413 a 6.0854167,6.0854167 0 0 0 -6.085417,6.085417 v 14.42909 H 84.47133 a 6.0854167,6.0854167 0 0 0 -6.085417,6.08542 v 0.11162 a 6.0854167,6.0854167 0 0 0 6.085417,6.08542 h 14.429093 v 14.42909 a 6.0854167,6.0854167 0 0 0 6.085417,6.08542 h 0.11162 a 6.0854167,6.0854167 0 0 0 6.08542,-6.08542 v -14.42909 h 14.42909 a 6.0854167,6.0854167 0 0 0 6.08542,-6.08542 v -0.11162 a 6.0854167,6.0854167 0 0 0 -6.08542,-6.08542 H 111.18288 V 97.52583 a 6.0854167,6.0854167 0 0 0 -6.08542,-6.085417 z" /></g></g></svg>
