<?xml version="1.0" encoding="UTF-8" standalone="no"?>
<!-- Created with Inkscape (http://www.inkscape.org/) -->

<svg
   width="51.642849mm"
   height="41.533398mm"
   viewBox="0 0 51.642849 41.533398"
   version="1.1"
   id="svg1"
   xml:space="preserve"
   xmlns="http://www.w3.org/2000/svg"
   xmlns:svg="http://www.w3.org/2000/svg"><defs
     id="defs1" /><g
     id="layer1"
     transform="translate(-111.49411,-142.87985)"><path
       id="rect3"
       style="opacity:1;stroke-width:9.44031;stroke-linecap:round;stroke-linejoin:round;paint-order:markers stroke fill"
       d="m 116.29692,150.18432 a 4.8026707,4.7625 0 0 0 -4.80281,4.7625 v 24.70392 a 4.8026707,4.7625 0 0 0 4.80281,4.7625 h 42.03723 a 4.8026707,4.7625 0 0 0 4.80281,-4.7625 v -24.70392 a 4.8026707,4.7625 0 0 0 -4.80281,-4.7625 z m 3.03857,4.64623 a 2.5017159,2.5017159 0 0 1 2.50166,2.50165 2.5017159,2.5017159 0 0 1 -2.50166,2.50166 2.5017159,2.5017159 0 0 1 -2.50165,-2.50166 2.5017159,2.5017159 0 0 1 2.50165,-2.50165 z m 18.02888,0.27853 a 12.208373,12.208373 0 0 1 12.20856,12.20804 12.208373,12.208373 0 0 1 -12.20856,12.20856 12.208373,12.208373 0 0 1 -12.20805,-12.20856 12.208373,12.208373 0 0 1 12.20805,-12.20804 z m -0.0238,5.39037 a 6.8958149,6.8958149 0 0 0 -6.89571,6.89571 6.8958149,6.8958149 0 0 0 6.89571,6.89622 6.8958149,6.8958149 0 0 0 6.8957,-6.89622 6.8958149,6.8958149 0 0 0 -6.8957,-6.89571 z" /><path
       style="opacity:1;fill:#000000;fill-opacity:1;stroke:#000000;stroke-width:0.219;stroke-linecap:round;stroke-linejoin:round;stroke-opacity:1;paint-order:markers stroke fill"
       d="m 126.28355,150.25796 c 0,0 0.3948,-2.53187 1.79762,-4.53856 1.03142,-1.47541 2.73971,-2.67522 4.66221,-2.68304 3.86541,-0.0157 5.45608,-0.0252 8.92256,-0.0469 2.99046,-0.0188 5.58509,2.17097 6.57097,7.20774"
       id="path7" /></g></svg>
